# xmcd CD database file
#
# Track frame offsets:
#	150
#	21950
#	42512
#	54000
#	66487
#	86037
#	106912
#	125800
#	143925
#	155780
#	169100
#	192287
#
# Disc length: 2811 seconds
#
# Revision: 0
# Processed by: cddbd v1.5.1PL0 Copyright (c) Steve Scherf et al.
# Submitted via: CDex 1.50beta8
#
DISCID=ae0af90c
DTITLE=吉田拓郎 - 今はまだ人生を語らず
DYEAR=1974
DGENRE=J-Pop
TTITLE0=ペニーレインでバーボンを
TTITLE1=人生を語らず
TTITLE2=世捨人唄
TTITLE3=おはよう
TTITLE4=シンシア
TTITLE5=三軒目の店ごと
TTITLE6=襟裳岬
TTITLE7=知識
TTITLE8=暮らし
TTITLE9=戻ってきた恋人
TTITLE10=僕の唄はサヨナラだけ
TTITLE11=贈り物
EXTD=YEAR: 1974
EXTT0=
EXTT1=
EXTT2=
EXTT3=
EXTT4=
EXTT5=
EXTT6=
EXTT7=
EXTT8=
EXTT9=
EXTT10=
EXTT11=
PLAYORDER=
